<!-- Generated by IcoMoon.io -->
<svg version="1.1" xmlns="http://www.w3.org/2000/svg" width="32" height="32" viewBox="0 0 32 32">
<title>client-six</title>
<path fill="#afb1b8" d="M16.079 14.137c-0.138-0.201-0.204-0.439-0.188-0.679v-0.984c0-0.302 0.062-0.531 0.187-0.688s0.339-0.235 0.643-0.234c0.285 0 0.488 0.067 0.608 0.2 0.131 0.17 0.194 0.379 0.18 0.589v0.231h-0.511v-0.234c0.002-0.077-0.003-0.153-0.015-0.229-0.007-0.052-0.033-0.1-0.073-0.136-0.052-0.039-0.119-0.058-0.185-0.053-0.070-0.005-0.139 0.015-0.195 0.056-0.044 0.040-0.074 0.093-0.085 0.15-0.015 0.080-0.021 0.162-0.020 0.243v1.194c-0.008 0.115 0.014 0.23 0.066 0.335 0.025 0.035 0.061 0.064 0.102 0.081s0.087 0.024 0.132 0.019c0.065 0.005 0.13-0.014 0.181-0.054 0.042-0.039 0.068-0.090 0.076-0.145 0.012-0.079 0.017-0.159 0.016-0.239v-0.242h0.511v0.221c0.014 0.219-0.048 0.436-0.177 0.619-0.117 0.146-0.317 0.219-0.611 0.219s-0.516-0.078-0.642-0.24z"></path>
<path fill="#afb1b8" d="M18.206 14.147c-0.129-0.153-0.194-0.376-0.194-0.672v-1.035c0-0.292 0.064-0.514 0.194-0.664s0.345-0.225 0.647-0.224c0.3 0 0.515 0.075 0.644 0.224s0.195 0.371 0.195 0.664v1.035c0 0.292-0.066 0.517-0.197 0.671s-0.345 0.231-0.642 0.231-0.517-0.078-0.647-0.23zM19.090 13.899c0.046-0.096 0.067-0.201 0.061-0.306v-1.267c0.006-0.103-0.015-0.206-0.060-0.3-0.026-0.036-0.062-0.065-0.104-0.082s-0.089-0.024-0.135-0.018c-0.046-0.006-0.093 0-0.135 0.018s-0.079 0.046-0.105 0.082c-0.046 0.094-0.068 0.197-0.061 0.3v1.273c-0.006 0.105 0.015 0.211 0.061 0.306 0.030 0.032 0.067 0.058 0.108 0.076s0.086 0.027 0.131 0.027 0.090-0.009 0.131-0.027c0.041-0.018 0.078-0.044 0.108-0.076v-0.006z"></path>
<path fill="#afb1b8" d="M20.305 11.583h0.55l0.413 1.91 0.423-1.91h0.535l0.054 2.756h-0.395l-0.042-1.916-0.408 1.916h-0.317l-0.423-1.923-0.039 1.923h-0.4l0.050-2.756z"></path>
<path fill="#afb1b8" d="M22.897 11.583h0.856c0.493 0 0.74 0.261 0.74 0.783 0 0.5-0.26 0.749-0.779 0.749h-0.292v1.225h-0.529l0.003-2.756zM23.628 12.761c0.052 0.006 0.105 0.002 0.155-0.013s0.096-0.040 0.135-0.074c0.061-0.093 0.087-0.202 0.076-0.311 0.003-0.084-0.006-0.168-0.025-0.25-0.008-0.027-0.021-0.053-0.039-0.076s-0.041-0.041-0.067-0.056c-0.073-0.033-0.155-0.049-0.236-0.044h-0.205v0.824h0.205z"></path>
<path fill="#afb1b8" d="M25.256 11.583h0.568l0.583 2.756h-0.493l-0.115-0.636h-0.506l-0.118 0.636h-0.5l0.583-2.756zM25.741 13.384l-0.198-1.157-0.198 1.157h0.395z"></path>
<path fill="#afb1b8" d="M26.876 11.583h0.37l0.708 1.572v-1.572h0.439v2.756h-0.352l-0.713-1.641v1.641h-0.454l0.001-2.756z"></path>
<path fill="#afb1b8" d="M29.421 13.288l-0.589-1.702h0.496l0.36 1.093 0.337-1.093h0.485l-0.581 1.702v1.051h-0.507v-1.051z"></path>
<path fill="#afb1b8" d="M16.896 15.544v0.144h-0.431v1.12h-0.181v-1.12h-0.434v-0.144h1.046z"></path>
<path fill="#afb1b8" d="M18.248 16.809h-0.14c-0.014 0.001-0.028-0.003-0.039-0.012-0.011-0.007-0.019-0.017-0.023-0.029l-0.125-0.3h-0.598l-0.125 0.3c-0.004 0.013-0.010 0.024-0.019 0.034-0.011 0.008-0.025 0.013-0.039 0.012h-0.14l0.529-1.264h0.184l0.535 1.259zM17.372 16.339h0.499l-0.211-0.514c-0.016-0.039-0.029-0.079-0.039-0.119-0.007 0.024-0.014 0.047-0.020 0.067l-0.019 0.053-0.209 0.513z"></path>
<path fill="#afb1b8" d="M19.159 16.684c0.033 0.002 0.066 0.002 0.099 0 0.029-0.003 0.057-0.008 0.085-0.015 0.026-0.006 0.051-0.014 0.076-0.023 0.023-0.009 0.047-0.020 0.071-0.031v-0.284h-0.211c-0.005 0-0.010-0-0.015-0.002s-0.009-0.004-0.013-0.008c-0.003-0.003-0.006-0.006-0.008-0.010s-0.003-0.008-0.003-0.013v-0.097h0.41v0.485c-0.034 0.023-0.069 0.043-0.106 0.060s-0.077 0.032-0.117 0.043c-0.043 0.012-0.087 0.021-0.132 0.026-0.051 0.005-0.103 0.008-0.154 0.008-0.091 0.001-0.182-0.015-0.266-0.047-0.079-0.030-0.151-0.075-0.211-0.132-0.059-0.058-0.105-0.126-0.136-0.2-0.033-0.084-0.050-0.173-0.049-0.262-0.001-0.090 0.015-0.18 0.048-0.264 0.030-0.075 0.077-0.143 0.136-0.2s0.132-0.101 0.211-0.131c0.091-0.032 0.187-0.048 0.283-0.047 0.049-0 0.098 0.004 0.147 0.011 0.043 0.007 0.085 0.017 0.126 0.032 0.037 0.013 0.072 0.030 0.106 0.050s0.063 0.042 0.092 0.066l-0.051 0.078c-0.004 0.007-0.010 0.013-0.017 0.017s-0.016 0.007-0.024 0.007c-0.012-0-0.023-0.004-0.033-0.010-0.016-0.008-0.033-0.018-0.052-0.030-0.023-0.013-0.046-0.025-0.071-0.034-0.032-0.012-0.064-0.021-0.097-0.028-0.044-0.008-0.089-0.011-0.134-0.011-0.070-0.001-0.139 0.011-0.204 0.035-0.059 0.022-0.112 0.056-0.155 0.1-0.044 0.045-0.077 0.099-0.098 0.157-0.047 0.137-0.047 0.285 0 0.421 0.023 0.059 0.059 0.114 0.106 0.159 0.043 0.043 0.096 0.078 0.154 0.1 0.067 0.022 0.139 0.030 0.209 0.025z"></path>
<path fill="#afb1b8" d="M20.845 16.664h0.577v0.144h-0.754v-1.264h0.181l-0.004 1.12z"></path>
<path fill="#afb1b8" d="M22.022 16.809h-0.181v-1.264h0.181v1.264z"></path>
<path fill="#afb1b8" d="M22.695 15.55c0.011 0.006 0.020 0.014 0.027 0.023l0.773 0.953c-0.001-0.015-0.001-0.030 0-0.045 0-0.014 0-0.028 0-0.041v-0.901h0.158v1.269h-0.091c-0.013 0.001-0.027-0.001-0.039-0.007-0.011-0.006-0.021-0.014-0.029-0.024l-0.772-0.952c0 0.015 0 0.029 0 0.043s0 0.027 0 0.039v0.901h-0.151v-1.264h0.094c0.010 0 0.020 0.002 0.030 0.006z"></path>
<path fill="#afb1b8" d="M24.984 15.544v0.139h-0.641v0.417h0.519v0.134h-0.519v0.431h0.641v0.139h-0.827v-1.261h0.827z"></path>
<path fill="#afb1b8" d="M6.038 7.737l8.028 2.158v7.562l-8.028-2.157v-7.563zM5.523 7.093v8.575l9.057 2.435v-8.574l-9.057-2.436z"></path>
<path fill="#afb1b8" d="M10.377 22.083l-9.058-2.437v-8.574l9.058 2.436v8.575z"></path>
<path fill="#afb1b8" d="M5.673 7.64l7.923 2.131-3.37 3.191-7.924-2.132 3.371-3.19zM5.523 7.093l-4.204 3.98 9.058 2.436 4.203-3.98-9.057-2.436z"></path>
<path fill="#afb1b8" d="M10.887 21.601l3.693-3.497-3.693-0.994v4.491z"></path>
</svg>
